<?xml version="1.0" encoding="UTF-8" standalone="no"?><!DOCTYPE svg PUBLIC "-//W3C//DTD SVG 1.1//EN" "http://www.w3.org/Graphics/SVG/1.1/DTD/svg11.dtd">
<svg width="100%" height="100%" viewBox="0 0 678 79" version="1.1"
	xmlns="http://www.w3.org/2000/svg"
	xmlns:xlink="http://www.w3.org/1999/xlink" xml:space="preserve"
	xmlns:serif="http://www.serif.com/" style="fill-rule:evenodd;clip-rule:evenodd;stroke-linejoin:round;stroke-miterlimit:2;">
	<rect id="Artboard1" x="0" y="0" width="677.952" height="78.72" style="fill:none;"/>
	<clipPath id="_clip1">
		<rect x="0" y="0" width="677.952" height="78.72"/>
	</clipPath>
	<g clip-path="url(#_clip1)">
		<g>
			<path d="M55.771,77.792c1.536,0 2.496,-0.256 2.88,-0.768c0.384,-0.512 0.576,-1.792 0.576,-3.84l0,-4.32c0,-1.92 -0.16,-3.072 -0.48,-3.456c-0.32,-0.384 -1.216,-0.576 -2.688,-0.576l-5.088,0c-1.344,0 -2.24,-0.208 -2.688,-0.624c-0.448,-0.416 -0.672,-1.104 -0.672,-2.064c0,-0.256 0.016,-0.752 0.048,-1.488c0.032,-0.736 0.048,-1.36 0.048,-1.872l0,-37.92c0,-0.96 0.144,-1.632 0.432,-2.016c0.288,-0.384 0.944,-0.576 1.968,-0.576c4.288,0 7.312,0.8 9.072,2.4c1.76,1.6 2.832,4.608 3.216,9.024c0.064,0.576 0.096,1.312 0.096,2.208c0,0.896 0.016,1.52 0.048,1.872c0.032,0.352 0.176,0.752 0.432,1.2c0.256,0.448 0.656,0.736 1.2,0.864c0.544,0.128 1.328,0.192 2.352,0.192l3.744,0c1.664,0 2.736,-0.208 3.216,-0.624c0.48,-0.416 0.72,-1.168 0.72,-2.256c0,-0.256 -0.016,-0.768 -0.048,-1.536c-0.032,-0.768 -0.048,-1.408 -0.048,-1.92l0,-19.584c0,-2.112 -0.176,-3.36 -0.528,-3.744c-0.352,-0.384 -1.552,-0.576 -3.6,-0.576l-66.816,0c-1.024,0 -1.696,0.208 -2.016,0.624c-0.32,0.416 -0.48,1.36 -0.48,2.832l0,22.176c0,0.384 -0.016,0.848 -0.048,1.392c-0.032,0.544 -0.048,0.912 -0.048,1.104c0,0.832 0.176,1.392 0.528,1.68c0.352,0.288 1.136,0.432 2.352,0.432l5.184,0c1.088,0 1.936,-0.208 2.544,-0.624c0.608,-0.416 0.976,-0.896 1.104,-1.44c0.128,-0.544 0.192,-1.264 0.192,-2.16l0,-1.824c0,-0.768 0.032,-1.344 0.096,-1.728c0.448,-3.84 1.552,-6.464 3.312,-7.872c1.76,-1.408 4.688,-2.112 8.784,-2.112c1.216,0 1.92,0.112 2.112,0.336c0.192,0.224 0.288,0.944 0.288,2.16l0,40.224c0,1.728 -0.272,2.8 -0.816,3.216c-0.544,0.416 -2,0.624 -4.368,0.624l-4.224,0c-0.896,0 -1.472,0.16 -1.728,0.48c-0.256,0.32 -0.384,1.12 -0.384,2.4l0,6.048c0,1.664 0.208,2.768 0.624,3.312c0.416,0.544 1.2,0.816 2.352,0.816c0.256,0 0.752,-0.016 1.488,-0.048c0.736,-0.032 1.36,-0.048 1.872,-0.048l33.888,0Z" style="fill:var(--logo-color);fill-rule:nonzero;"/>
			<path d="M110.971,77.792c1.408,0 2.256,-0.128 2.544,-0.384c0.288,-0.256 0.432,-1.024 0.432,-2.304l0,-3.168l0.096,-2.304c0,-0.704 -0.16,-1.2 -0.48,-1.488c-0.32,-0.288 -0.992,-0.432 -2.016,-0.432l-3.072,0c-1.536,0 -2.448,-0.128 -2.736,-0.384c-0.288,-0.256 -0.432,-1.024 -0.432,-2.304l0,-12.48c0,-4.736 1.152,-8.848 3.456,-12.336c2.304,-3.488 4.672,-5.232 7.104,-5.232c0.96,0 1.44,0.32 1.44,0.96c0,0.128 -0.48,0.832 -1.44,2.112c-0.96,1.28 -1.44,2.816 -1.44,4.608c0,2.432 1.008,4.416 3.024,5.952c2.016,1.536 4.56,2.304 7.632,2.304c3.712,0 6.592,-1.28 8.64,-3.84c2.048,-2.56 3.072,-5.312 3.072,-8.256c0,-4.096 -1.44,-7.264 -4.32,-9.504c-2.88,-2.24 -6.656,-3.36 -11.328,-3.36c-5.056,0 -9.312,1.408 -12.768,4.224c-0.192,0.192 -0.48,0.496 -0.864,0.912c-0.384,0.416 -0.704,0.736 -0.96,0.96c-0.256,0.224 -0.48,0.336 -0.672,0.336c-0.384,0 -0.576,-0.768 -0.576,-2.304l0,-0.672c0,-0.64 -0.064,-1.056 -0.192,-1.248c-0.128,-0.192 -0.416,-0.288 -0.864,-0.288l-24.96,0c-1.088,0 -1.824,0.144 -2.208,0.432c-0.384,0.288 -0.576,0.944 -0.576,1.968l0,3.072c0,0.32 -0.016,0.752 -0.048,1.296c-0.032,0.544 -0.048,0.912 -0.048,1.104c0,0.832 0.192,1.408 0.576,1.728c0.384,0.32 1.216,0.48 2.496,0.48l4.032,0c0.704,0 1.152,0.128 1.344,0.384c0.192,0.256 0.288,0.896 0.288,1.92l0,25.44c0,0.896 -0.144,1.456 -0.432,1.68c-0.288,0.224 -1.008,0.336 -2.16,0.336l-4.128,0c-0.832,0 -1.36,0.128 -1.584,0.384c-0.224,0.256 -0.336,0.96 -0.336,2.112l0,4.8c0,1.28 0.112,2.064 0.336,2.352c0.224,0.288 0.784,0.432 1.68,0.432l32.448,0Z" style="fill:var(--logo-color);fill-rule:nonzero;"/>
			<path d="M162.619,40.928c0,-1.408 -0.272,-2.528 -0.816,-3.36c-0.544,-0.832 -0.816,-1.312 -0.816,-1.44c0,-0.64 1.312,-0.96 3.936,-0.96c1.856,0 3.328,0.736 4.416,2.208c1.088,1.472 1.632,3.36 1.632,5.664l0,4.896c0,1.088 -0.384,1.632 -1.152,1.632c-21.056,0 -31.584,5.632 -31.584,16.896c0,4.288 1.728,7.488 5.184,9.6c3.456,2.112 7.968,3.168 13.536,3.168c5.76,0 10.368,-1.44 13.824,-4.32c1.344,-1.152 2.08,-1.728 2.208,-1.728c0.128,0 0.256,0.048 0.384,0.144c0.128,0.096 0.368,0.352 0.72,0.768c0.352,0.416 0.656,0.784 0.912,1.104c2.56,2.688 6.336,4.032 11.328,4.032c7.936,0 13.504,-2.56 16.704,-7.68c0.768,-1.216 1.152,-2.048 1.152,-2.496c0,-0.64 -0.448,-1.216 -1.344,-1.728l-3.264,-2.016c-0.896,-0.512 -1.44,-0.768 -1.632,-0.768c-0.192,0 -0.608,0.448 -1.248,1.344c-0.832,1.088 -1.824,1.632 -2.976,1.632c-1.728,0 -2.592,-0.928 -2.592,-2.784l0,-20.736c0,-6.4 -2.032,-10.928 -6.096,-13.584c-4.064,-2.656 -9.968,-3.984 -17.712,-3.984c-7.104,0 -13.088,1.312 -17.952,3.936c-4.864,2.624 -7.296,6.176 -7.296,10.656c0,2.56 0.944,4.528 2.832,5.904c1.888,1.376 4.432,2.064 7.632,2.064c2.752,0 5.12,-0.72 7.104,-2.16c1.984,-1.44 2.976,-3.408 2.976,-5.904Zm8.352,18.24c0,3.392 -0.48,5.76 -1.44,7.104c-0.96,1.344 -2.592,2.016 -4.896,2.016c-2.432,0 -3.648,-1.344 -3.648,-4.032c0,-1.472 0.704,-2.896 2.112,-4.272c1.408,-1.376 3.2,-2.32 5.376,-2.832c0.64,-0.128 1.024,-0.192 1.152,-0.192c0.896,0 1.344,0.736 1.344,2.208Z" style="fill:var(--logo-color);fill-rule:nonzero;"/>
			<path d="M212.251,11.552c0,3.136 1.088,5.6 3.264,7.392c2.176,1.792 4.928,2.688 8.256,2.688c3.328,0 6.08,-0.896 8.256,-2.688c2.176,-1.792 3.264,-4.256 3.264,-7.392c0,-3.136 -1.088,-5.6 -3.264,-7.392c-2.176,-1.792 -4.928,-2.688 -8.256,-2.688c-3.328,0 -6.08,0.896 -8.256,2.688c-2.176,1.792 -3.264,4.256 -3.264,7.392Zm-0.384,26.4c1.088,0 1.744,0.128 1.968,0.384c0.224,0.256 0.336,0.992 0.336,2.208l0,23.808l0.096,1.824c0,0.576 -0.128,0.976 -0.384,1.2c-0.256,0.224 -0.832,0.336 -1.728,0.336l-4.704,0c-0.896,0 -1.44,0.128 -1.632,0.384c-0.192,0.256 -0.288,0.992 -0.288,2.208l0,4.992c0,1.152 0.112,1.856 0.336,2.112c0.224,0.256 0.752,0.384 1.584,0.384l32.64,0c1.344,0 2.16,-0.16 2.448,-0.48c0.288,-0.32 0.432,-1.248 0.432,-2.784l0,-4.8c0,-0.896 -0.112,-1.472 -0.336,-1.728c-0.224,-0.256 -0.624,-0.384 -1.2,-0.384l-2.016,0.096l-2.88,0c-1.024,0 -1.648,-0.096 -1.872,-0.288c-0.224,-0.192 -0.336,-0.736 -0.336,-1.632l0,-34.368c0,-1.6 -0.16,-2.592 -0.48,-2.976c-0.32,-0.384 -1.216,-0.576 -2.688,-0.576l-23.328,0c-1.024,0 -1.664,0.16 -1.92,0.48c-0.256,0.32 -0.384,1.184 -0.384,2.592l0,5.472c0,0.64 0.128,1.056 0.384,1.248c0.256,0.192 0.864,0.288 1.824,0.288l4.128,0Z" style="fill:var(--logo-color);fill-rule:nonzero;"/>
			<path d="M249.979,12.992c1.216,0 1.952,0.176 2.208,0.528c0.256,0.352 0.384,1.2 0.384,2.544l0,46.368c0,0.384 0.032,0.928 0.096,1.632c0.064,0.704 0.096,1.184 0.096,1.44c0,1.472 -0.8,2.208 -2.4,2.208l-4.224,0c-1.024,0 -1.648,0.08 -1.872,0.24c-0.224,0.16 -0.336,0.624 -0.336,1.392l0,5.568c0,1.408 0.112,2.24 0.336,2.496c0.224,0.256 1.04,0.384 2.448,0.384l32.256,0c1.152,0 1.84,-0.112 2.064,-0.336c0.224,-0.224 0.336,-0.944 0.336,-2.16l0,-5.376c0,-1.024 -0.08,-1.648 -0.24,-1.872c-0.16,-0.224 -0.624,-0.336 -1.392,-0.336l-4.128,0c-1.344,0 -2.16,-0.176 -2.448,-0.528c-0.288,-0.352 -0.432,-1.36 -0.432,-3.024l0,-57.984c0,-1.408 -0.144,-2.304 -0.432,-2.688c-0.288,-0.384 -0.944,-0.576 -1.968,-0.576l-23.616,0c-1.28,0 -2.064,0.16 -2.352,0.48c-0.288,0.32 -0.432,1.152 -0.432,2.496l0,5.472c0,0.64 0.128,1.072 0.384,1.296c0.256,0.224 0.864,0.336 1.824,0.336l3.84,0Z" style="fill:var(--logo-color);fill-rule:nonzero;"/>
			<path d="M390.523,52.64c0.128,-1.152 0.192,-1.792 0.192,-1.92c0,-0.512 -0.176,-0.848 -0.528,-1.008c-0.352,-0.16 -1.072,-0.24 -2.16,-0.24l-9.024,0c-0.64,0 -1.152,0.032 -1.536,0.096c-0.384,0.064 -0.688,0.144 -0.912,0.24c-0.224,0.096 -0.4,0.256 -0.528,0.48c-0.128,0.224 -0.208,0.432 -0.24,0.624l-0.432,2.304c-1.024,4.224 -3.12,7.552 -6.288,9.984c-3.168,2.432 -6.96,3.648 -11.376,3.648c-5.568,0 -9.92,-2.144 -13.056,-6.432c-3.136,-4.288 -4.704,-10.496 -4.704,-18.624c0,-8.128 1.52,-14.432 4.56,-18.912c3.04,-4.48 7.12,-6.72 12.24,-6.72c8.064,0 13.44,4.16 16.128,12.48c0.128,0.384 0.272,0.976 0.432,1.776c0.16,0.8 0.304,1.328 0.432,1.584c0.128,0.256 0.448,0.512 0.96,0.768c0.512,0.256 1.248,0.384 2.208,0.384l8.256,0c1.344,0 2.304,-0.16 2.88,-0.48c0.576,-0.32 0.864,-1.088 0.864,-2.304l0,-21.984c0,-1.216 -0.16,-2.032 -0.48,-2.448c-0.32,-0.416 -1.088,-0.624 -2.304,-0.624l-5.088,0c-2.112,0 -3.552,0.48 -4.32,1.44l-2.016,2.496c-0.64,0.704 -1.152,1.056 -1.536,1.056c-0.256,0 -0.512,-0.096 -0.768,-0.288c-0.256,-0.192 -0.592,-0.48 -1.008,-0.864c-0.416,-0.384 -0.816,-0.704 -1.2,-0.96c-4.224,-2.88 -9.184,-4.32 -14.88,-4.32c-11.584,0 -21.2,3.632 -28.848,10.896c-7.648,7.264 -11.472,16.272 -11.472,27.024c0,11.584 3.744,20.8 11.232,27.648c7.488,6.848 17.344,10.272 29.568,10.272c10.176,0 18.24,-2.448 24.192,-7.344c5.952,-4.896 9.472,-11.472 10.56,-19.728Z" style="fill:var(--logo-color);fill-rule:nonzero;"/>
			<path d="M398.011,54.272c0,7.04 2.576,13.04 7.728,18c5.152,4.96 12.144,7.44 20.976,7.44c8.896,0 15.904,-2.64 21.024,-7.92c5.12,-5.28 7.68,-11.92 7.68,-19.92c0,-7.104 -2.592,-13.2 -7.776,-18.288c-5.184,-5.088 -12.16,-7.632 -20.928,-7.632c-8.832,0 -15.824,2.72 -20.976,8.16c-5.152,5.44 -7.728,12.16 -7.728,20.16Zm21.6,-2.4c0,-10.88 2.368,-16.32 7.104,-16.32c4.736,0 7.104,6.08 7.104,18.24c0,10.88 -2.368,16.32 -7.104,16.32c-4.736,0 -7.104,-6.08 -7.104,-18.24Z" style="fill:var(--logo-color);fill-rule:nonzero;"/>
			<path d="M489.499,39.392c0,-0.576 0.112,-0.96 0.336,-1.152c0.224,-0.192 0.752,-0.288 1.584,-0.288l7.488,0c0.896,0 1.472,-0.128 1.728,-0.384c0.256,-0.256 0.384,-0.736 0.384,-1.44l0,-6.336c0,-0.832 -0.128,-1.36 -0.384,-1.584c-0.256,-0.224 -0.768,-0.336 -1.536,-0.336l-7.872,0c-0.832,0 -1.328,-0.064 -1.488,-0.192c-0.16,-0.128 -0.24,-0.576 -0.24,-1.344l0,-1.344c0,-5.504 0.928,-9.488 2.784,-11.952c1.856,-2.464 3.968,-3.696 6.336,-3.696c1.536,0 2.304,0.256 2.304,0.768c0,0.256 -0.288,0.624 -0.864,1.104c-0.576,0.48 -1.152,1.184 -1.728,2.112c-0.576,0.928 -0.864,2.064 -0.864,3.408c0,2.624 1.056,4.768 3.168,6.432c2.112,1.664 4.896,2.496 8.352,2.496c3.264,0 5.952,-0.88 8.064,-2.64c2.112,-1.76 3.168,-4.432 3.168,-8.016c0,-3.968 -1.904,-7.296 -5.712,-9.984c-3.808,-2.688 -9.36,-4.032 -16.656,-4.032c-9.024,0 -16.032,2.192 -21.024,6.576c-4.992,4.384 -7.488,9.488 -7.488,15.312l0,3.36c0,0.704 -0.128,1.152 -0.384,1.344c-0.256,0.192 -0.896,0.288 -1.92,0.288l-4.032,0c-1.152,0 -1.824,0.096 -2.016,0.288c-0.192,0.192 -0.288,0.864 -0.288,2.016l0,6.528c0,0.512 0.096,0.848 0.288,1.008c0.192,0.16 0.672,0.24 1.44,0.24l5.184,0c0.832,0 1.328,0.112 1.488,0.336c0.16,0.224 0.24,0.848 0.24,1.872l0,25.728c0,0.704 -0.16,1.184 -0.48,1.44c-0.32,0.256 -0.992,0.384 -2.016,0.384l-3.84,0c-1.152,0 -1.824,0.096 -2.016,0.288c-0.192,0.192 -0.288,0.896 -0.288,2.112l0,4.8c0,1.216 0.128,2 0.384,2.352c0.256,0.352 0.8,0.528 1.632,0.528l36.192,0c0.896,0 1.472,-0.096 1.728,-0.288c0.256,-0.192 0.384,-0.608 0.384,-1.248l0,-6.048c0,-1.088 -0.128,-1.776 -0.384,-2.064c-0.256,-0.288 -0.896,-0.432 -1.92,-0.432l-6.336,0c-1.408,0 -2.24,-0.112 -2.496,-0.336c-0.256,-0.224 -0.384,-0.944 -0.384,-2.16l0,-0.48l0,-25.344Z" style="fill:var(--logo-color);fill-rule:nonzero;"/>
			<path d="M538.939,39.392c0,-0.576 0.112,-0.96 0.336,-1.152c0.224,-0.192 0.752,-0.288 1.584,-0.288l7.488,0c0.896,0 1.472,-0.128 1.728,-0.384c0.256,-0.256 0.384,-0.736 0.384,-1.44l0,-6.336c0,-0.832 -0.128,-1.36 -0.384,-1.584c-0.256,-0.224 -0.768,-0.336 -1.536,-0.336l-7.872,0c-0.832,0 -1.328,-0.064 -1.488,-0.192c-0.16,-0.128 -0.24,-0.576 -0.24,-1.344l0,-1.344c0,-5.504 0.928,-9.488 2.784,-11.952c1.856,-2.464 3.968,-3.696 6.336,-3.696c1.536,0 2.304,0.256 2.304,0.768c0,0.256 -0.288,0.624 -0.864,1.104c-0.576,0.48 -1.152,1.184 -1.728,2.112c-0.576,0.928 -0.864,2.064 -0.864,3.408c0,2.624 1.056,4.768 3.168,6.432c2.112,1.664 4.896,2.496 8.352,2.496c3.264,0 5.952,-0.88 8.064,-2.64c2.112,-1.76 3.168,-4.432 3.168,-8.016c0,-3.968 -1.904,-7.296 -5.712,-9.984c-3.808,-2.688 -9.36,-4.032 -16.656,-4.032c-9.024,0 -16.032,2.192 -21.024,6.576c-4.992,4.384 -7.488,9.488 -7.488,15.312l0,3.36c0,0.704 -0.128,1.152 -0.384,1.344c-0.256,0.192 -0.896,0.288 -1.92,0.288l-4.032,0c-1.152,0 -1.824,0.096 -2.016,0.288c-0.192,0.192 -0.288,0.864 -0.288,2.016l0,6.528c0,0.512 0.096,0.848 0.288,1.008c0.192,0.16 0.672,0.24 1.44,0.24l5.184,0c0.832,0 1.328,0.112 1.488,0.336c0.16,0.224 0.24,0.848 0.24,1.872l0,25.728c0,0.704 -0.16,1.184 -0.48,1.44c-0.32,0.256 -0.992,0.384 -2.016,0.384l-3.84,0c-1.152,0 -1.824,0.096 -2.016,0.288c-0.192,0.192 -0.288,0.896 -0.288,2.112l0,4.8c0,1.216 0.128,2 0.384,2.352c0.256,0.352 0.8,0.528 1.632,0.528l36.192,0c0.896,0 1.472,-0.096 1.728,-0.288c0.256,-0.192 0.384,-0.608 0.384,-1.248l0,-6.048c0,-1.088 -0.128,-1.776 -0.384,-2.064c-0.256,-0.288 -0.896,-0.432 -1.92,-0.432l-6.336,0c-1.408,0 -2.24,-0.112 -2.496,-0.336c-0.256,-0.224 -0.384,-0.944 -0.384,-2.16l0,-0.48l0,-25.344Z" style="fill:var(--logo-color);fill-rule:nonzero;"/>
			<path d="M613.627,56.096c1.024,0 1.712,-0.112 2.064,-0.336c0.352,-0.224 0.528,-0.656 0.528,-1.296c0,-0.192 -0.032,-0.544 -0.096,-1.056c-0.064,-0.512 -0.096,-0.928 -0.096,-1.248c-0.128,-2.688 -0.4,-5.136 -0.816,-7.344c-0.416,-2.208 -1.184,-4.528 -2.304,-6.96c-1.12,-2.432 -2.576,-4.48 -4.368,-6.144c-1.792,-1.664 -4.24,-3.04 -7.344,-4.128c-3.104,-1.088 -6.736,-1.632 -10.896,-1.632c-9.28,0 -16.48,2.624 -21.6,7.872c-5.12,5.248 -7.68,11.904 -7.68,19.968c0,7.232 2.48,13.36 7.44,18.384c4.96,5.024 12.016,7.536 21.168,7.536c6.144,0 11.376,-1.264 15.696,-3.792c4.32,-2.528 7.312,-6.448 8.976,-11.76c0.384,-1.28 0.576,-1.984 0.576,-2.112c0,-0.576 -0.832,-0.864 -2.496,-0.864l-8.352,0c-0.704,0 -1.216,0.064 -1.536,0.192c-0.32,0.128 -0.544,0.256 -0.672,0.384c-0.128,0.128 -0.32,0.48 -0.576,1.056c-2.176,4.672 -5.344,7.008 -9.504,7.008c-3.072,0 -5.296,-1.008 -6.672,-3.024c-1.376,-2.016 -2.224,-4.848 -2.544,-8.496c0,-0.064 -0.016,-0.144 -0.048,-0.24c-0.032,-0.096 -0.048,-0.176 -0.048,-0.24c0,-0.704 0.224,-1.168 0.672,-1.392c0.448,-0.224 1.216,-0.336 2.304,-0.336l28.224,0Zm-17.664,-12.192l0,1.056c0,0.384 -0.08,0.672 -0.24,0.864c-0.16,0.192 -0.368,0.304 -0.624,0.336c-0.256,0.032 -0.736,0.048 -1.44,0.048l-9.504,0c-1.152,0 -1.728,-0.288 -1.728,-0.864l0.288,-1.632c0.832,-5.504 3.328,-8.256 7.488,-8.256c3.392,0 5.312,2.816 5.76,8.448Z" style="fill:var(--logo-color);fill-rule:nonzero;"/>
			<path d="M675.931,56.096c1.024,0 1.712,-0.112 2.064,-0.336c0.352,-0.224 0.528,-0.656 0.528,-1.296c0,-0.192 -0.032,-0.544 -0.096,-1.056c-0.064,-0.512 -0.096,-0.928 -0.096,-1.248c-0.128,-2.688 -0.4,-5.136 -0.816,-7.344c-0.416,-2.208 -1.184,-4.528 -2.304,-6.96c-1.12,-2.432 -2.576,-4.48 -4.368,-6.144c-1.792,-1.664 -4.24,-3.04 -7.344,-4.128c-3.104,-1.088 -6.736,-1.632 -10.896,-1.632c-9.28,0 -16.48,2.624 -21.6,7.872c-5.12,5.248 -7.68,11.904 -7.68,19.968c0,7.232 2.48,13.36 7.44,18.384c4.96,5.024 12.016,7.536 21.168,7.536c6.144,0 11.376,-1.264 15.696,-3.792c4.32,-2.528 7.312,-6.448 8.976,-11.76c0.384,-1.28 0.576,-1.984 0.576,-2.112c0,-0.576 -0.832,-0.864 -2.496,-0.864l-8.352,0c-0.704,0 -1.216,0.064 -1.536,0.192c-0.32,0.128 -0.544,0.256 -0.672,0.384c-0.128,0.128 -0.32,0.48 -0.576,1.056c-2.176,4.672 -5.344,7.008 -9.504,7.008c-3.072,0 -5.296,-1.008 -6.672,-3.024c-1.376,-2.016 -2.224,-4.848 -2.544,-8.496c0,-0.064 -0.016,-0.144 -0.048,-0.24c-0.032,-0.096 -0.048,-0.176 -0.048,-0.24c0,-0.704 0.224,-1.168 0.672,-1.392c0.448,-0.224 1.216,-0.336 2.304,-0.336l28.224,0Zm-17.664,-12.192l0,1.056c0,0.384 -0.08,0.672 -0.24,0.864c-0.16,0.192 -0.368,0.304 -0.624,0.336c-0.256,0.032 -0.736,0.048 -1.44,0.048l-9.504,0c-1.152,0 -1.728,-0.288 -1.728,-0.864l0.288,-1.632c0.832,-5.504 3.328,-8.256 7.488,-8.256c3.392,0 5.312,2.816 5.76,8.448Z" style="fill:var(--logo-color);fill-rule:nonzero;"/>
		</g>
	</g>
</svg>